<?xml version="1.0" ?><svg id="Layer_1" style="enable-background:new 0 0 65 65;" version="1.1" viewBox="0 0 40 65zzzzzzzzzzzzzzz" xml:space="preserve" xmlns="http://www.w3.org/2000/svg" xmlns:xlink="http://www.w3.org/1999/xlink"><style type="text/css">
	.st0{fill:#1C1F20;}
</style><g><path class="st0" d="M51.9,17.2c0.4,0,0.8-0.3,0.8-0.8v-9c0-0.4-0.3-0.8-0.8-0.8s-0.8,0.3-0.8,0.8v9C51.2,16.9,51.5,17.2,51.9,17.2   z"/><path class="st0" d="M51.9,4.2c0.4,0,0.8-0.3,0.8-0.8v-1c0-0.4-0.3-0.8-0.8-0.8s-0.8,0.3-0.8,0.8v1C51.2,3.9,51.5,4.2,51.9,4.2z"/><path class="st0" d="M3.2,7.8c0,0.4,0.3,0.8,0.8,0.8s0.8-0.3,0.8-0.8V6.6h1.3c0.4,0,0.8-0.3,0.8-0.8S6.3,5.1,5.9,5.1H4.7V3.8   c0-0.4-0.3-0.8-0.8-0.8S3.2,3.4,3.2,3.8v1.3H1.9c-0.4,0-0.8,0.3-0.8,0.8s0.3,0.8,0.8,0.8h1.3V7.8z"/><path class="st0" d="M51.1,28.3h1.3v1.3c0,0.4,0.3,0.8,0.8,0.8s0.8-0.3,0.8-0.8v-1.3h1.3c0.4,0,0.8-0.3,0.8-0.8s-0.3-0.8-0.8-0.8   h-1.3v-1.3c0-0.4-0.3-0.8-0.8-0.8s-0.8,0.3-0.8,0.8v1.3h-1.3c-0.4,0-0.8,0.3-0.8,0.8S50.7,28.3,51.1,28.3z"/><path class="st0" d="M50.8,32.5c-5.8,0-10.6,3.8-12.3,9H10.1l-4,4l4,4h4.1l2.9-2.9l2.9,2.9h1l2.9-2.9l2.9,2.9h1l2.9-2.9l2.9,2.9h5   c1.7,5.2,6.6,9,12.4,9c7.2,0,13-5.8,13-13S58,32.5,50.8,32.5z M55.8,49.9c-2.4,0-4.4-2-4.4-4.4s2-4.4,4.4-4.4c2.4,0,4.4,2,4.4,4.4   S58.3,49.9,55.8,49.9z"/><path class="st0" d="M37.1,51.5h-4.4l-2-2l-2,2h-2.7l-2-2l-2,2h-2.7l-2-2l-2,2H9.3l-6.1-6l6.1-6h27.8c2-4.5,6-7.7,10.8-8.7V0.5h-30   l0,0h0l-16,16h16v-16h2v18h-18v46h46v-4.3C43.1,59.3,39,56,37.1,51.5z M28.9,4.5h12v14h-12V4.5z M7.9,22.5h33c0.6,0,1,0.4,1,1   s-0.4,1-1,1h-33c-0.6,0-1-0.4-1-1S7.4,22.5,7.9,22.5z M7.9,28.5h33c0.6,0,1,0.4,1,1s-0.4,1-1,1h-33c-0.6,0-1-0.4-1-1   S7.4,28.5,7.9,28.5z M7.9,34.5h27c0.6,0,1,0.4,1,1s-0.4,1-1,1h-27c-0.6,0-1-0.4-1-1S7.4,34.5,7.9,34.5z"/></g></svg>